<?xml version="1.0" encoding="UTF-8"?>
<svg id="Layer_1" data-name="Layer 1" xmlns="http://www.w3.org/2000/svg" viewBox="0 0 250 150">
  <defs>
    <style>
      .cls-1 {
        fill: #f499c1;
      }

      .cls-1, .cls-2 {
        stroke-width: 0px;
      }

      .cls-2 {
        fill: #fff;
      }
    </style>
  </defs>
  <circle class="cls-1" cx="123.16" cy="77.6" r="59.67"/>
  <g>
    <g>
      <path class="cls-2" d="m98.2,108.88c-.17.01-.32-.02-.45-.11-.13-.08-.23-.19-.28-.32-.05-.06-.13-.17-.23-.33-.1-.15-.17-.31-.19-.46-.04-.41-.06-.8-.07-1.19,0-.38,0-.92.05-1.61.04-.56.11-1.11.22-1.64.11-.53.22-1,.33-1.42.11-.42.19-.75.26-1,.06-.25.08-.37.04-.37-.05,0-.13.09-.23.28-.1.19-.22.41-.34.68-.13.27-.26.53-.38.79-.13.26-.24.48-.33.64-.18.4-.39.81-.62,1.25s-.48.86-.72,1.27c-.24.41-.45.77-.63,1.07-.11.13-.25.31-.4.54-.15.24-.32.48-.5.74-.18.25-.36.47-.55.63-.28.27-.56.41-.83.44-.27.03-.51-.04-.7-.21-.04-.05-.08-.11-.12-.18-.04-.07-.08-.16-.1-.28-.03-.11-.02-.25.02-.4-.01-.18,0-.46,0-.83.02-.38.05-.79.1-1.24.05-.45.1-.89.16-1.31.06-.42.11-.77.16-1.05.11-.82.27-1.65.47-2.51.2-.85.38-1.71.55-2.58.1-.25.19-.54.28-.87.08-.33.17-.63.26-.91.01-.28.08-.47.19-.56s.25-.13.39-.1c.15.03.26.11.35.24.13.13.23.32.3.59.07.27.02.61-.16,1.01-.26.62-.5,1.39-.74,2.29-.24.9-.45,1.99-.64,3.26-.05.31-.11.67-.17,1.09-.06.42-.12.83-.17,1.22-.05.4-.09.73-.11,1-.02.27-.02.41,0,.42.1.03.24-.05.42-.24s.34-.43.48-.74c.52-.87,1.04-1.78,1.56-2.73.52-.95,1.01-1.89,1.48-2.82.22-.37.44-.78.66-1.21s.44-.84.64-1.21c.22-.38.41-.73.59-1.04.18-.31.33-.57.46-.77.13-.2.23-.32.31-.34.2.01.38.06.53.14.15.08.27.25.37.51.03.06.02.17-.02.33-.04.15-.08.29-.13.4-.01.09-.07.27-.16.55-.1.28-.18.59-.26.94-.13.34-.24.69-.33,1.02-.1.34-.16.62-.2.83-.1.55-.23,1.15-.38,1.81-.15.66-.28,1.31-.39,1.95s-.17,1.22-.18,1.73c-.01.36,0,.64,0,.84.02.2.05.36.1.48.03.1.1.17.24.19.13.03.25-.02.33-.13.25-.32.47-.61.66-.87.18-.26.36-.53.53-.8.17-.27.34-.58.52-.93.32-.59.65-1.24.98-1.96.34-.72.66-1.44.98-2.15.31-.71.58-1.34.81-1.87.24-.69.44-1.24.58-1.64.15-.41.28-.71.39-.92s.24-.34.36-.42c.06-.05.15-.08.27-.08s.23.05.34.15c.05.05.1.13.14.24.04.11.06.24.05.39-.06.2-.18.53-.33.97-.16.45-.34.94-.54,1.47-.2.54-.4,1.05-.59,1.53-.19.48-.36.87-.5,1.17-.14.27-.27.5-.4.69-.13.19-.19.34-.19.44,0,.05-.06.21-.19.47-.13.26-.29.58-.49.95-.2.37-.41.75-.64,1.15-.23.4-.45.76-.65,1.09-.2.33-.38.59-.52.77-.32.4-.63.72-.93.97-.3.26-.56.44-.77.55-.22.12-.37.17-.46.17Z"/>
      <path class="cls-2" d="m106.04,107.26c-.1-.1-.18-.23-.22-.38-.04-.15-.06-.31-.05-.46.01-.15.04-.28.1-.38,0-.1.02-.18.05-.24.03-.06.04-.11.03-.16-.01-.05,0-.14.04-.27.04-.13.08-.25.11-.36.09-.2.18-.45.29-.74.1-.29.2-.57.29-.85.09-.28.17-.52.23-.73.06-.2.1-.33.11-.38,0-.15.1-.24.31-.25.15-.05.27-.05.34,0,.08.04.18.17.31.37.1.1.14.25.11.46s-.11.46-.25.76c-.05.1-.11.25-.18.44-.07.19-.12.36-.14.52-.05.1-.11.25-.18.43-.07.18-.13.36-.18.53-.03.06-.05.16-.08.28s-.06.25-.1.38c-.04.13-.09.25-.15.35-.11.52-.22.83-.32.92-.1.09-.25.01-.47-.23Zm1.86-7.76c-.06-.06-.12-.16-.17-.28-.05-.12-.08-.24-.1-.34s0-.16.04-.16c.1-.01.22-.12.36-.33.14-.2.2-.38.17-.54,0-.05.02-.1.06-.14.04-.04.08-.07.13-.09.15-.1.3-.12.45-.05.15.07.28.21.41.41.11.24.15.44.1.6-.05.16-.19.38-.42.66-.19.25-.37.4-.53.42-.16.03-.33-.03-.51-.17Z"/>
      <path class="cls-2" d="m111.82,107.74c-.14-.03-.28-.1-.43-.22-.15-.12-.27-.26-.38-.42s-.18-.3-.22-.43c0-.03-.03-.08-.1-.15-.05-.04-.08-.21-.09-.51,0-.3,0-.63.05-1,.04-.37.08-.66.13-.88.06-.2.16-.48.29-.83s.24-.67.33-.95l.52-1.11-.77-.21c-.09-.03-.16-.08-.22-.15-.06-.08-.09-.14-.09-.19,0-.1.06-.23.17-.37s.2-.22.25-.22c.06.01.18.02.35.02s.34,0,.51-.02c.17-.01.27-.03.31-.04.05-.03.1-.06.15-.1.05-.04.09-.11.11-.2.06-.14.12-.27.17-.39.05-.12.12-.26.21-.41.09-.17.16-.31.22-.42s.15-.27.28-.48c.06-.09.13-.2.21-.33.08-.13.17-.24.29-.33.11-.1.23-.15.35-.14.12,0,.28.09.47.26.1.13.16.22.17.29.01.06-.04.19-.15.36-.1.22-.22.43-.35.65s-.26.43-.37.65c-.2.28-.24.44-.11.48s.48.01,1.07-.08c.37-.06.64-.05.8.05.17.1.26.25.29.47.04.31,0,.49-.1.55-.1.06-.4.1-.88.1-.31.05-.57.08-.78.09-.22,0-.38,0-.48,0-.17.01-.27.02-.33.02s-.13.01-.23.04-.18.07-.22.12c-.04.06-.09.14-.14.24-.05.05-.13.18-.23.4-.1.22-.23.45-.38.71-.18.54-.33,1.07-.46,1.6s-.23,1.04-.31,1.54c-.05.32-.04.54.02.66.06.12.23.19.5.22.14.01.37,0,.68,0,.31-.02.56-.05.74-.1.14-.06.29-.13.44-.2.15-.07.29-.14.42-.22.11-.06.29-.17.52-.31.06-.1.13-.13.21-.1.08.04.14.13.19.29,0,.15-.03.31-.1.48s-.3.36-.71.59c-.57.36-1.1.57-1.58.64s-.88.07-1.21,0Z"/>
      <path class="cls-2" d="m123.56,107.28c-.32.15-.61.19-.86.12-.26-.07-.46-.24-.6-.51-.15-.27-.22-.61-.22-1.01,0-.14.02-.35.07-.63.04-.28.1-.58.16-.89s.13-.58.21-.81c.04-.12.07-.2.09-.27.02-.06,0-.1-.05-.1s-.11.03-.18.1c-.07.06-.12.11-.16.15-.28.23-.57.51-.87.84-.3.33-.58.67-.83,1-.26.34-.46.65-.62.93-.16.28-.24.48-.24.61,0,.19-.1.33-.29.4-.19.08-.36.07-.5-.02-.24-.14-.39-.31-.45-.51-.06-.2-.07-.53-.03-1,.04-.6.09-1.13.15-1.61.06-.47.17-.98.32-1.54.15-.55.34-1.23.58-2.04.17-.45.32-.87.46-1.27s.26-.74.37-1.02c.11-.28.18-.45.2-.52.06-.06.15-.22.25-.47.1-.25.19-.5.28-.76.08-.25.12-.41.12-.46,0-.1.02-.19.06-.28.04-.08.08-.15.13-.2.05-.05.11-.12.19-.19.06,0,.14.02.24.06.1.04.19.09.28.16.09.07.15.16.17.26.09.18.13.36.13.54s-.05.41-.16.68c-.11.27-.29.64-.55,1.11-.2.4-.39.8-.55,1.22-.17.42-.33.86-.48,1.32-.06.19-.15.46-.26.8-.11.34-.22.7-.33,1.07-.11.37-.2.7-.27.99-.07.29-.11.47-.11.54,0,.09.05.13.15.12.1,0,.2-.08.31-.22.05-.1.16-.23.33-.38.17-.15.3-.27.4-.36.1-.09.24-.22.42-.38.18-.17.37-.33.57-.51.2-.17.4-.32.57-.44.18-.12.32-.18.42-.18.17,0,.32.06.46.18.14.12.24.25.29.39.04.04.08.09.11.14.04.06.06.1.08.12.06.05.07.27,0,.66-.06.39-.19.89-.39,1.5-.11.47-.21.87-.28,1.2-.07.33-.05.49.05.49.27-.15.48-.27.63-.36.37-.24.69-.39.97-.43.27-.04.41,0,.41.14,0,.05-.02.1-.06.14-.04.04-.06.09-.06.14v.1s-.08.12-.25.3c-.17.17-.35.34-.54.52-.2.17-.35.27-.47.3Z"/>
      <path class="cls-2" d="m131.44,111.27c-.57-.33-.99-.77-1.26-1.3s-.37-1.16-.31-1.87c.01-.19.04-.32.07-.38.03-.06.12-.09.26-.08.04,0,.08.02.12.05.04.03.07.07.11.11.03.04.04.09.03.12,0,.09.04.21.12.36.09.23.17.45.25.67s.17.41.28.57c.11.17.23.31.37.42.04.05.12.12.26.22.13.09.25.14.33.14.18.14.32.18.42.12.1-.06.24-.24.42-.54.1-.18.24-.46.41-.84.17-.38.36-.79.55-1.22.2-.43.37-.83.52-1.19.15-.36.24-.59.28-.71.08-.09.13-.18.15-.27,0-.08.04-.22.11-.44.07-.22.16-.47.27-.76s.22-.59.33-.88c.11-.29.19-.55.24-.78.18-.55.38-1.16.59-1.85.22-.68.43-1.35.63-2.01.2-.66.37-1.22.51-1.69s.21-.76.22-.88c0-.17-.02-.25-.07-.27-.04-.01-.21.03-.51.12-.13.04-.31.05-.55.04-.24-.01-.48,0-.71.06-.19.01-.36-.02-.51-.1s-.25-.2-.32-.36c-.06-.16-.07-.33-.02-.53,0-.05.1-.09.31-.11.2-.03.41-.03.63,0,.05.01.11,0,.18-.02s.13-.04.18-.06c.1-.04.23-.07.37-.1.15-.03.29-.04.43,0,.11.01.26-.02.44-.1.05.01.11.02.18.02s.16-.03.28-.08c.09.01.22,0,.38-.06.04-.04.09-.03.14.02.06.05.12.12.18.2.06.08.11.16.15.24.06.2.07.43.03.69-.04.26-.11.59-.18,1-.08.2-.15.43-.23.69-.08.25-.15.46-.21.63-.01.2-.05.43-.11.69-.06.25-.13.45-.21.59-.24.74-.41,1.28-.51,1.61-.1.33-.16.52-.18.57-.01.1-.04.21-.1.32-.06.01-.11.08-.14.2-.03.12-.05.21-.05.26-.05.09-.09.16-.12.22-.03.06-.07.11-.12.16-.01.18-.06.32-.13.42,0,.09,0,.19-.02.3-.01.11-.06.27-.13.48s-.2.52-.38.93c-.01.09-.06.25-.15.48-.09.23-.18.47-.28.73s-.18.48-.26.67c-.08.19-.11.3-.11.33-.03.11-.17.42-.42.92s-.54,1.11-.84,1.84c-.27.6-.54,1.02-.81,1.27-.27.25-.55.36-.84.33-.29-.03-.59-.13-.91-.31Z"/>
      <path class="cls-2" d="m141.02,107.31c-.1.03-.24.04-.4.03-.17,0-.31-.03-.43-.06-.12-.03-.18-.07-.18-.1,0-.06-.03-.1-.1-.1-.12-.1-.23-.18-.34-.23-.11-.18-.17-.37-.17-.58s.06-.55.17-1c.04-.32.16-.69.37-1.12.21-.43.47-.86.77-1.31.31-.45.63-.85.97-1.2.34-.36.65-.62.93-.78.18-.18.4-.27.65-.29s.5.04.73.17c.13.06.25.17.38.31.13.14.25.29.36.46.11.17.21.33.29.5.04.14.06.26.07.37,0,.11,0,.24,0,.39,0,.15-.03.38-.07.69-.06.23-.12.51-.16.84-.04.33-.07.62-.07.86-.03.24,0,.41.09.52.08.1.21.11.37.02.15-.08.3-.11.44-.1.14,0,.25.05.33.12.08.08.12.19.12.34s-.07.31-.22.47c-.15.16-.33.29-.54.4-.21.11-.41.16-.6.16-.14,0-.27-.09-.4-.26-.13-.17-.24-.38-.33-.63-.1-.25-.18-.49-.26-.72l-.11-.44-.82.78c-.17.18-.33.34-.49.49s-.26.25-.3.32c-.06.11-.18.23-.35.34-.17.12-.4.23-.7.34Zm.06-1.13c.22-.13.47-.32.75-.56.28-.25.55-.52.82-.82s.49-.58.67-.83c.22-.29.38-.57.5-.82.11-.25.2-.5.25-.73-.05-.14-.13-.29-.25-.45-.12-.16-.22-.25-.31-.26-.28,0-.58.18-.89.53-.31.35-.62.73-.91,1.14-.05.06-.12.17-.21.31-.09.14-.17.27-.26.39-.08.12-.14.2-.16.24-.04.05-.11.19-.22.43s-.21.47-.32.71c-.1.24-.15.39-.15.47s0,.16.03.25c.02.09.08.15.18.17.1.03.26-.03.48-.15Z"/>
      <path class="cls-2" d="m148.88,107.03c-.05,0-.12-.04-.22-.11-.1-.07-.17-.13-.22-.18-.09-.1-.14-.2-.16-.31-.02-.1-.03-.33-.03-.69,0-.41.08-.85.25-1.33.17-.48.45-1.15.84-2.02l.63-1.34c.05-.1.1-.18.14-.23s.09-.1.12-.15h.19c.1,0,.2.06.31.18.1.12.18.25.23.39,0,.17-.02.34-.07.52s-.2.45-.47.8c-.09.14-.21.38-.35.71-.15.33-.25.62-.3.86-.01.01-.04.07-.08.16-.04.1-.08.2-.12.32-.04.11-.09.22-.14.33l-.1.42,1.28-1.32c.6-.6,1.08-1.03,1.45-1.28.37-.25.66-.36.88-.33s.4.21.55.52c.09.14.16.26.2.37.04.11.07.25.09.43.01.18,0,.45-.04.8v1.19c.19-.05.34-.1.46-.14.11-.04.24-.09.36-.14.11-.05.25-.1.4-.14.15-.04.34-.07.57-.09-.01.17-.07.34-.17.53-.1.18-.23.36-.38.53-.15.17-.32.3-.51.4-.19.1-.37.15-.54.15-.17,0-.35-.08-.55-.25-.2-.17-.35-.35-.44-.55-.05-.14-.08-.29-.09-.46s0-.47,0-.92v-.71c0-.2-.06-.26-.18-.18s-.22.16-.3.22c-.19.17-.39.36-.6.57s-.42.44-.64.67c-.59.61-1.07,1.07-1.46,1.36-.39.29-.65.44-.79.44Z"/>
    </g>
    <g>
      <g>
        <g>
          <path class="cls-2" d="m91.46,55v16.6h-3.91v-16.6h3.91Zm8.56,0l-4.42,7.4,4.8,9.2h-4.48l-4.34-8.84,4.36-7.76h4.08Z"/>
          <path class="cls-2" d="m114.1,71.6h-4.93l-3.72-12.49.06.5c.14,1.1.25,2.13.33,3.09.08.96.12,2.06.12,3.28v5.61h-3.47v-16.6h4.82l3.85,12.54c-.17-1.19-.3-2.27-.39-3.22-.09-.96-.14-2.05-.14-3.3v-6.02h3.47v16.6Z"/>
          <path class="cls-2" d="m121.59,55v16.6h-3.91v-16.6h3.91Z"/>
          <path class="cls-2" d="m135.63,55l-.4,3.37h-3.47v13.23h-3.91v-13.23h-3.68v-3.37h11.46Z"/>
        </g>
        <g>
          <path class="cls-2" d="m99.09,91.03h-4.93l-3.72-12.49.06.5c.14,1.1.25,2.13.33,3.09.08.96.12,2.06.12,3.28v5.61h-3.47v-16.6h4.82l3.85,12.54c-.17-1.19-.3-2.27-.39-3.22-.09-.96-.14-2.05-.14-3.3v-6.02h3.47v16.6Z"/>
          <path class="cls-2" d="m110.39,91.03l-.66-3.39h-3.89l-.66,3.39h-4.06l4.36-16.6h4.69l4.36,16.6h-4.14Zm-3.93-6.54h2.66l-1.33-6.9-1.33,6.9Z"/>
          <path class="cls-2" d="m125.97,74.43l-.4,3.37h-3.47v13.23h-3.91v-13.23h-3.68v-3.37h11.46Z"/>
          <path class="cls-2" d="m138.83,74.43l-.4,3.37h-3.47v13.23h-3.91v-13.23h-3.68v-3.37h11.46Z"/>
          <path class="cls-2" d="m150.54,74.43l-.4,3.13h-5.01v3.54h4.38v3.03h-4.38v3.77h5.35v3.13h-9.26v-16.6h9.33Z"/>
          <path class="cls-2" d="m158.56,84.91h-1.08v6.12h-3.91v-16.6h5.1c2.07,0,3.62.42,4.64,1.27,1.02.84,1.53,2.14,1.53,3.89,0,1.05-.22,1.93-.64,2.63-.43.7-1.12,1.33-2.06,1.89l3.66,6.93h-4.36l-2.88-6.12Zm-1.08-3.01h1.31c1.35,0,2.03-.77,2.03-2.32,0-.72-.19-1.24-.56-1.58-.37-.33-.93-.5-1.68-.5h-1.1v4.4Z"/>
        </g>
      </g>
      <path class="cls-2" d="m156.74,71.72c.02.24-.09.38-.32.41-.23.03-.54-.01-.92-.12-.38-.11-.77-.26-1.17-.46-.41-.19-.76-.38-1.07-.56-.39-.1-.93-.48-1.62-1.13-.69-.65-1.43-1.44-2.23-2.38-.81.45-1.47.81-1.98,1.08-.51.27-.97.5-1.39.67-.42.17-.91.34-1.48.5-1.34.12-2.57-.01-3.69-.4-.16-.06-.37-.18-.63-.37-.25-.18-.5-.38-.75-.58-.24-.2-.42-.36-.52-.46-.1-.06-.15-.2-.15-.41s.02-.43.06-.66c.04-.22.07-.37.09-.43.06-.18.24-.5.53-.96.29-.46.67-.99,1.13-1.6.46-.61.96-1.23,1.49-1.86.54-.63,1.07-1.21,1.6-1.74-.49-.71-.82-1.39-1.01-2.03-.18-.64-.18-1.34.02-2.09.19-.75.57-1.64,1.14-2.65.2-.33.46-.67.76-1.02.3-.36.61-.69.93-1.01s.59-.56.82-.73c.23-.17.36-.24.38-.2.08.14.16.19.24.15.08-.04.16-.06.24-.06.08-.04.23-.06.46-.05.22.01.48.04.78.08.29.04.57.11.84.21.73.08,1.25.16,1.54.24.29.08.56.26.81.55.3.22.54.45.7.67.16.22.28.44.35.66.07.21.11.41.11.59,0,.26-.21.67-.63,1.22-.42.55-.97,1.13-1.66,1.74-.26.33-.67.74-1.22,1.25,0,.08-.05.19-.15.34-.1.14-.23.24-.4.3-.22.2-.54.49-.95.85-.41.37-.77.7-1.1,1.01-.33.3-.5.49-.52.55-.02.04.07.22.27.53.2.32.47.69.79,1.11.32.43.66.85.99,1.27.34.42.64.76.9,1.04.26.27.44.41.52.41.67-.65,1.37-1.29,2.09-1.91.72-.62,1.46-1.28,2.21-1.97.51-.53.87-.9,1.08-1.11.21-.21.38-.31.49-.29.11.02.24.1.38.24.26.04.41.17.43.38.02.21-.01.42-.09.61-.08.19-.13.3-.15.32-.26.35-.63.74-1.1,1.19-.47.45-.97.91-1.49,1.39-.53.48-1.03.93-1.49,1.36-.47.43-.85.79-1.16,1.1.51.59.88,1,1.13,1.22.67.69,1.19,1.17,1.56,1.45.37.27.78.49,1.25.66.63.2,1.1.45,1.4.75.3.29.47.67.49,1.11Zm-14.98-3.69c.61.18,1.21.25,1.8.2.59-.05,1.21-.22,1.88-.5.66-.28,1.38-.69,2.15-1.22l.58-.43-.76-.88c-.14-.16-.36-.44-.64-.82-.28-.39-.57-.75-.85-1.1-.3-.28-.62-.69-.95-1.22-.06,0-.2.1-.41.31-.21.2-.44.44-.67.72-.23.27-.41.51-.53.72-.47.37-.82.73-1.07,1.08-.24.36-.52.77-.82,1.24-.14.33-.22.61-.24.85-.02.24.02.45.11.61.09.16.24.32.44.46Zm3.48-8.85c.22-.24.56-.55,1.02-.93.46-.38.96-.79,1.49-1.25.54-.46,1.04-.93,1.51-1.4.47-.48.84-.94,1.11-1.37.27-.44.36-.83.26-1.17-.04-.08-.21-.19-.5-.34-.3-.14-.62-.27-.98-.4-.36-.12-.66-.17-.9-.15-.41-.04-.87.17-1.39.64-.52.47-1.01,1.04-1.48,1.71-.51.75-.81,1.54-.91,2.36-.1.82.15,1.59.76,2.3Z"/>
    </g>
  </g>
</svg>